P3
73 40
1023
0 0 511
0 0 511
0 0 511
0 0 511
0 0 511
0 0 511
0 0 511
0 0 511
0 0 511
0 0 511
0 0 511
0 0 511
0 0 511
0 0 511
0 0 511
0 0 511
0 0 511
0 0 511
0 0 511
0 0 511
0 0 511
0 0 511
0 0 511
0 0 511
0 0 511
0 0 511
0 0 511
0 0 511
0 0 511
0 0 511
0 0 511
0 0 511
0 0 511
0 0 511
0 0 511
0 0 511
0 0 511
0 0 511
0 0 511
0 0 511
0 0 511
0 0 511
0 0 511
0 0 511
0 0 511
0 0 511
0 0 511
0 0 511
0 0 511
0 0 511
0 0 511
0 0 511
0 0 511
0 0 511
0 0 511
0 0 511
0 0 511
0 0 511
0 0 511
0 0 511
0 0 511
0 0 511
0 0 511
0 0 511
0 0 511
0 0 511
0 0 511
0 0 511
0 0 511
0 0 511
0 0 511
0 0 511
0 0 511
0 0 511
0 0 511
0 0 511
0 0 511
0 0 511
0 0 511
0 0 511
0 0 511
0 0 511
0 0 511
0 0 511
0 0 511
0 0 511
0 0 511
0 0 511
0 0 511
0 0 511
0 0 511
0 0 511
0 0 511
0 0 511
0 0 511
0 0 511
0 0 511
0 0 511
0 0 511
0 0 511
0 0 511
0 0 511
0 0 511
0 0 511
0 0 511
0 0 511
0 0 511
0 0 511
0 0 511
0 0 511
0 0 511
0 0 511
0 0 511
0 0 511
0 0 511
0 0 511
0 0 511
0 0 511
0 0 511
0 0 511
0 0 511
0 0 511
0 0 511
0 0 511
0 0 511
0 0 511
0 0 511
0 0 511
0 0 511
0 0 511
0 0 511
0 0 511
0 0 511
0 0 511
0 0 511
0 0 511
0 0 511
0 0 511
0 0 511
0 0 511
0 0 511
0 0 511
0 0 511
0 0 511
0 0 511
0 0 511
0 0 511
0 0 511
0 0 511
0 0 511
0 0 511
0 0 511
0 0 511
0 0 511
0 0 511
0 0 511
0 0 511
0 0 511
0 0 511
0 0 511
0 0 511
0 0 511
0 0 511
0 0 511
0 0 511
0 0 511
0 0 511
0 0 511
0 0 511
0 0 511
0 0 511
0 0 511
0 0 511
0 0 511
0 0 511
0 0 511
0 0 511
0 0 511
0 0 511
0 0 511
0 0 511
0 0 511
0 0 511
0 0 511
0 0 511
0 0 511
0 0 511
0 0 511
0 0 511
0 0 511
0 0 511
0 0 511
0 0 511
0 0 511
0 0 511
0 0 511
0 0 511
0 0 511
0 0 511
0 0 511
0 0 511
0 0 511
0 0 511
0 0 511
0 0 511
0 0 511
0 0 511
0 0 511
0 0 511
0 0 511
0 0 511
0 0 511
0 0 511
0 0 511
0 0 511
0 0 511
0 0 511
0 0 511
0 0 511
0 0 511
0 0 511
0 0 511
0 0 511
0 0 511
0 0 511
0 0 511
0 0 511
0 0 511
0 0 511
0 0 511
0 0 511
0 0 511
0 0 511
0 0 511
0 0 511
0 0 511
0 0 511
0 0 511
0 0 511
0 0 511
0 0 511
0 0 511
0 0 511
0 0 511
0 0 511
0 0 511
0 0 511
0 0 511
0 0 511
0 0 511
0 0 511
0 0 511
0 0 511
0 0 511
0 0 511
0 0 511
0 0 683
0 0 585
0 0 609
0 0 682
0 0 690
0 0 720
0 0 797
0 0 870
0 0 867
0 0 885
0 0 960
0 0 1019
0 0 1017
0 0 1009
0 0 1018
0 31 1023
0 50 1023
0 31 1023
0 0 1019
0 0 1011
0 0 1018
0 0 1022
0 0 962
0 0 885
0 0 869
0 0 870
0 0 800
0 0 718
0 0 689
0 0 679
0 0 609
0 0 592
0 0 670
0 0 511
0 0 511
0 0 511
0 0 511
0 0 511
0 0 511
0 0 511
0 0 511
0 0 511
0 0 511
0 0 511
0 0 511
0 0 511
0 0 511
0 0 511
0 0 511
0 0 511
0 0 511
0 0 511
0 0 511
0 0 511
0 0 511
0 0 511
0 0 511
0 0 511
0 0 511
0 0 511
0 0 511
0 0 511
0 0 511
0 0 511
0 0 511
0 0 511
0 0 511
0 0 511
0 0 511
0 0 511
0 0 511
0 0 511
0 0 511
0 0 764
0 69 1023
0 248 1023
0 447 1023
0 665 1023
0 847 1023
0 975 1023
58 1023 964
279 1023 743
434 1023 588
529 1023 493
556 1023 466
691 1023 331
763 1023 259
812 1023 210
797 1023 225
820 1023 202
795 1023 227
811 1023 211
760 1023 262
691 1023 331
552 1023 470
528 1023 494
428 1023 594
278 1023 744
54 1023 968
0 978 1023
0 845 1023
0 666 1023
0 444 1023
0 249 1023
0 67 1023
0 0 763
0 0 511
0 0 511
0 0 511
0 0 511
0 0 511
0 0 511
0 0 511
0 0 511
0 0 511
0 0 511
0 0 511
0 0 511
0 0 511
0 0 511
0 0 511
0 0 511
0 0 511
0 0 511
0 0 511
0 0 511
0 0 511
0 0 511
0 0 511
0 0 511
0 0 511
0 0 511
0 0 511
0 0 511
0 0 511
0 0 511
0 0 511
0 0 511
0 0 511
0 0 511
0 0 511
0 0 511
0 0 511
0 0 511
0 0 511
0 0 511
0 0 723
0 248 1023
0 378 1023
0 525 1023
0 634 1023
0 879 1023
0 971 1023
20 1023 1002
154 1023 868
327 1023 695
433 1023 589
440 1023 582
491 1023 531
540 1023 482
651 1023 371
606 1023 416
621 1023 401
603 1023 419
647 1023 375
532 1023 490
486 1023 536
427 1023 595
425 1023 597
314 1023 708
142 1023 880
4 1023 1018
0 960 1023
0 868 1023
0 621 1023
0 515 1023
0 370 1023
0 245 1023
0 0 718
0 0 511
0 0 511
0 0 511
0 0 511
0 0 511
0 0 511
0 0 511
0 0 511
0 0 511
0 0 511
0 0 511
0 0 511
0 0 511
0 0 511
0 0 511
0 0 511
0 0 511
0 0 511
0 0 511
0 0 511
0 0 511
0 0 511
0 0 511
0 0 511
0 0 511
0 0 511
0 0 511
0 0 511
0 0 511
0 0 511
0 0 511
0 0 511
0 0 511
0 0 511
0 0 511
0 0 511
0 0 511
0 0 511
0 0 511
0 0 511
0 0 875
0 458 1023
0 554 1023
0 576 1023
0 639 1023
0 904 1023
0 1006 1023
116 1023 906
203 1023 819
316 1023 706
384 1023 638
465 1023 557
563 1023 459
549 1023 473
644 1023 378
591 1023 431
692 1023 330
592 1023 430
645 1023 377
551 1023 471
567 1023 455
467 1023 555
392 1023 630
324 1023 698
214 1023 808
127 1023 895
1 1023 1021
0 926 1023
0 660 1023
0 601 1023
0 576 1023
0 485 1023
0 0 901
0 0 511
0 0 511
0 0 511
0 0 511
0 0 511
0 0 511
0 0 511
0 0 511
0 0 511
0 0 511
0 0 511
0 0 511
0 0 511
0 0 511
0 0 511
0 0 511
0 0 511
0 0 511
0 0 511
0 0 511
0 0 511
0 0 511
0 0 511
0 0 511
0 0 511
0 0 511
0 0 511
0 0 511
0 0 511
0 0 511
0 0 511
0 0 511
0 0 511
0 0 511
0 0 511
0 0 511
0 0 511
0 0 511
0 0 511
0 0 511
0 0 686
0 231 1023
0 233 1023
0 272 1023
0 320 1023
0 476 1023
0 549 1023
0 669 1023
0 799 1023
0 865 1023
0 906 1023
0 1002 1023
85 1023 937
81 1023 941
78 1023 944
125 1023 897
215 1023 807
132 1023 890
93 1023 929
102 1023 920
114 1023 908
13 1023 1009
0 948 1023
0 912 1023
0 851 1023
0 725 1023
0 610 1023
0 540 1023
0 387 1023
0 340 1023
0 289 1023
0 282 1023
0 0 740
0 0 511
0 0 511
0 0 511
0 0 511
0 0 511
0 0 511
0 0 511
0 0 511
0 0 511
0 0 511
0 0 511
0 0 511
0 0 511
0 0 511
0 0 511
0 0 511
0 0 511
0 0 511
0 0 511
0 0 511
0 0 511
0 0 511
0 0 511
0 0 511
0 0 511
0 0 511
0 0 511
0 0 511
0 0 511
0 0 511
0 0 511
0 0 511
0 0 511
0 0 511
0 0 511
0 0 511
0 0 511
0 0 511
0 0 511
0 0 511
0 0 724
0 389 1023
0 368 1023
0 396 1023
0 456 1023
0 613 1023
0 697 1023
0 776 1023
0 966 1023
0 998 1023
39 1023 983
113 1023 909
245 1023 777
227 1023 795
231 1023 791
265 1023 757
357 1023 665
267 1023 755
236 1023 786
234 1023 788
258 1023 764
128 1023 894
60 1023 962
0 1022 1023
0 996 1023
0 811 1023
0 740 1023
0 659 1023
0 507 1023
0 454 1023
0 423 1023
0 441 1023
0 0 785
0 0 511
0 0 511
0 0 511
0 0 511
0 0 511
0 0 511
0 0 511
0 0 511
0 0 511
0 0 511
0 0 511
0 0 511
0 0 511
0 0 511
0 0 511
0 0 511
0 0 511
0 0 511
0 0 511
0 0 511
0 0 511
0 0 511
0 0 511
0 0 511
0 0 511
0 0 511
0 0 511
0 0 511
0 0 511
0 0 511
0 0 511
0 0 511
0 0 511
0 0 511
0 0 511
0 0 511
0 0 511
0 0 511
0 0 511
0 0 511
0 0 711
0 380 1023
0 185 1023
0 166 1023
0 227 1023
0 379 1023
0 351 1023
0 347 1023
0 461 1023
0 470 1023
0 447 1023
0 426 1023
0 536 1023
0 513 1023
0 499 1023
0 481 1023
0 540 1023
0 474 1023
0 488 1023
0 498 1023
0 520 1023
0 401 1023
0 421 1023
0 441 1023
0 431 1023
0 307 1023
0 318 1023
0 350 1023
0 188 1023
0 138 1023
0 179 1023
0 380 1023
0 0 687
0 0 511
0 0 511
0 0 511
0 0 511
0 0 511
0 0 511
0 0 511
0 0 511
0 0 511
0 0 511
0 0 511
0 0 511
0 0 511
0 0 511
0 0 511
0 0 511
0 0 511
0 0 511
0 0 511
0 0 511
0 0 511
0 0 511
0 0 511
0 0 511
0 0 511
0 0 511
0 0 511
0 0 511
0 0 511
0 0 511
0 0 511
0 0 511
0 0 511
0 0 511
0 0 511
0 0 511
0 0 511
0 0 511
0 0 511
0 0 511
0 0 909
0 803 1023
0 763 1023
0 823 1023
0 969 1023
296 1023 726
385 1023 637
515 1023 507
682 1023 340
862 1023 160
976 1023 46
1000 1023 22
1023 880 0
1023 835 0
1023 738 0
1023 817 0
1023 732 0
1023 828 0
1023 755 0
1023 859 0
1023 909 0
960 1023 62
933 1023 89
817 1023 205
631 1023 391
456 1023 566
330 1023 692
247 1023 775
0 912 1023
0 772 1023
0 734 1023
0 792 1023
0 0 889
0 0 511
0 0 511
0 0 511
0 0 511
0 0 511
0 0 511
0 0 511
0 0 511
0 0 511
0 0 511
0 0 511
0 0 511
0 0 511
0 0 511
0 0 511
0 0 511
0 0 511
0 0 511
0 0 511
0 0 511
0 0 511
0 0 511
0 0 511
0 0 511
0 0 511
0 0 511
0 0 511
0 0 511
0 0 511
0 0 511
0 0 511
0 0 511
0 0 511
0 0 511
0 0 511
0 0 511
0 0 511
0 0 511
0 0 511
0 0 511
0 67 1023
125 1023 897
150 1023 872
95 1023 927
112 1023 910
504 1023 518
585 1023 437
684 1023 338
756 1023 266
887 1023 135
979 1023 43
1010 1023 12
1023 892 0
1023 927 0
1023 797 0
1023 936 0
1023 809 0
1023 938 0
1023 800 0
1023 932 0
1023 897 0
1002 1023 20
970 1023 52
879 1023 143
750 1023 272
680 1023 342
579 1023 443
503 1023 519
101 1023 921
89 1023 933
152 1023 870
139 1023 883
0 68 1023
0 0 511
0 0 511
0 0 511
0 0 511
0 0 511
0 0 511
0 0 511
0 0 511
0 0 511
0 0 511
0 0 511
0 0 511
0 0 511
0 0 511
0 0 511
0 0 511
0 0 511
0 0 511
0 0 511
0 0 511
0 0 511
0 0 511
0 0 511
0 0 511
0 0 511
0 0 511
0 0 511
0 0 511
0 0 511
0 0 511
0 0 511
0 0 511
0 0 511
0 0 511
0 0 511
0 0 511
0 0 511
0 0 511
0 0 511
0 0 511
0 0 986
54 1023 968
28 1023 994
0 983 1023
38 1023 984
380 1023 642
489 1023 533
683 1023 339
842 1023 180
918 1023 104
1007 1023 15
1023 897 0
1023 694 0
1023 770 0
1023 663 0
1023 689 0
1023 512 0
1023 682 0
1023 648 0
1023 746 0
1023 665 0
1023 863 0
1023 998 0
963 1023 59
892 1023 130
743 1023 279
548 1023 474
444 1023 578
100 1023 922
22 1023 1000
80 1023 942
106 1023 916
0 13 1023
0 0 511
0 0 511
0 0 511
0 0 511
0 0 511
0 0 511
0 0 511
0 0 511
0 0 511
0 0 511
0 0 511
0 0 511
0 0 511
0 0 511
0 0 511
0 0 511
0 0 511
0 0 511
0 0 511
0 0 511
0 0 511
0 0 511
0 0 511
0 0 511
0 0 511
0 0 511
0 0 511
0 0 511
0 0 511
0 0 511
0 0 511
0 0 511
0 0 511
0 0 511
0 0 511
0 0 511
0 0 511
0 0 511
0 0 511
0 0 511
0 0 983
32 1023 990
0 1012 1023
0 984 1023
73 1023 949
345 1023 677
445 1023 577
593 1023 429
801 1023 221
880 1023 142
951 1023 71
1023 985 0
1023 797 0
1023 803 0
1023 774 0
1023 742 0
1023 655 0
1023 727 0
1023 747 0
1023 765 0
1023 746 0
1023 923 0
1023 1021 0
959 1023 63
888 1023 134
691 1023 331
547 1023 475
450 1023 572
178 1023 844
67 1023 955
78 1023 944
111 1023 911
0 37 1023
0 0 511
0 0 511
0 0 511
0 0 511
0 0 511
0 0 511
0 0 511
0 0 511
0 0 511
0 0 511
0 0 511
0 0 511
0 0 511
0 0 511
0 0 511
0 0 511
0 0 511
0 0 511
0 0 511
0 0 511
0 0 511
0 0 511
0 0 511
0 0 511
0 0 511
0 0 511
0 0 511
0 0 511
0 0 511
0 0 511
0 0 511
0 0 511
0 0 511
0 0 511
0 0 511
0 0 511
0 0 511
0 0 511
0 0 511
0 0 511
0 0 773
0 737 1023
0 484 1023
0 352 1023
0 369 1023
0 538 1023
0 495 1023
0 486 1023
0 671 1023
0 670 1023
0 695 1023
0 652 1023
0 809 1023
0 764 1023
0 798 1023
0 751 1023
0 828 1023
0 759 1023
0 808 1023
0 782 1023
0 831 1023
0 678 1023
0 721 1023
0 706 1023
0 702 1023
0 519 1023
0 529 1023
0 572 1023
0 401 1023
0 398 1023
0 529 1023
0 772 1023
0 0 801
0 0 511
0 0 511
0 0 511
0 0 511
0 0 511
0 0 511
0 0 511
0 0 511
0 0 511
0 0 511
0 0 511
0 0 511
0 0 511
0 0 511
0 0 511
0 0 511
0 0 511
0 0 511
0 0 511
0 0 511
0 0 511
0 0 511
0 0 511
0 0 511
0 0 511
0 0 511
0 0 511
0 0 511
0 0 511
0 0 511
0 0 511
0 0 511
0 0 511
0 0 511
0 0 511
0 0 511
0 0 511
0 0 511
0 0 511
0 0 511
0 0 990
77 1023 945
0 932 1023
0 901 1023
0 1023 1022
312 1023 710
319 1023 703
409 1023 613
590 1023 432
698 1023 324
716 1023 306
743 1023 279
892 1023 130
882 1023 140
938 1023 84
924 1023 98
1023 1018 0
915 1023 107
919 1023 103
853 1023 169
855 1023 167
696 1023 326
662 1023 360
643 1023 379
527 1023 495
336 1023 686
245 1023 777
244 1023 778
0 948 1023
0 841 1023
0 899 1023
66 1023 956
0 0 963
0 0 511
0 0 511
0 0 511
0 0 511
0 0 511
0 0 511
0 0 511
0 0 511
0 0 511
0 0 511
0 0 511
0 0 511
0 0 511
0 0 511
0 0 511
0 0 511
0 0 511
0 0 511
0 0 511
0 0 511
0 0 511
0 0 511
0 0 511
0 0 511
0 0 511
0 0 511
0 0 511
0 0 511
0 0 511
0 0 511
0 0 511
0 0 511
0 0 511
0 0 511
0 0 511
0 0 511
0 0 511
0 0 511
0 0 511
0 0 511
0 91 1023
363 1023 659
350 1023 672
328 1023 694
412 1023 610
892 1023 130
1001 1023 21
1023 893 0
1023 730 0
1023 476 0
1023 357 0
1023 312 0
1023 126 0
1023 122 0
999 0 0
1023 49 0
896 0 0
1023 56 0
1012 0 0
1023 146 0
1023 154 0
1023 350 0
1023 397 0
1023 522 0
1023 781 0
1023 950 0
945 1023 77
839 1023 183
347 1023 675
279 1023 743
324 1023 698
356 1023 666
0 69 1023
0 0 511
0 0 511
0 0 511
0 0 511
0 0 511
0 0 511
0 0 511
0 0 511
0 0 511
0 0 511
0 0 511
0 0 511
0 0 511
0 0 511
0 0 511
0 0 511
0 0 511
0 0 511
0 0 511
0 0 511
0 0 511
0 0 511
0 0 511
0 0 511
0 0 511
0 0 511
0 0 511
0 0 511
0 0 511
0 0 511
0 0 511
0 0 511
0 0 511
0 0 511
0 0 511
0 0 511
0 0 511
0 0 511
0 0 511
0 0 511
0 149 1023
474 1023 548
432 1023 590
330 1023 692
330 1023 692
778 1023 244
881 1023 141
982 1023 40
1023 928 0
1023 823 0
1023 733 0
1023 676 0
1023 480 0
1023 561 0
1023 429 0
1023 521 0
1023 314 0
1023 517 0
1023 418 0
1023 547 0
1023 465 0
1023 657 0
1023 712 0
1023 802 0
1023 909 0
1008 1023 14
903 1023 119
805 1023 217
348 1023 674
356 1023 666
462 1023 560
507 1023 515
0 168 1023
0 0 511
0 0 511
0 0 511
0 0 511
0 0 511
0 0 511
0 0 511
0 0 511
0 0 511
0 0 511
0 0 511
0 0 511
0 0 511
0 0 511
0 0 511
0 0 511
0 0 511
0 0 511
0 0 511
0 0 511
0 0 511
0 0 511
0 0 511
0 0 511
0 0 511
0 0 511
0 0 511
0 0 511
0 0 511
0 0 511
0 0 511
0 0 511
0 0 511
0 0 511
0 0 511
0 0 511
0 0 511
0 0 511
0 0 511
0 0 511
0 109 1023
403 1023 619
345 1023 677
315 1023 707
465 1023 557
875 1023 147
969 1023 53
1023 864 0
1023 610 0
1023 499 0
1023 394 0
1023 240 0
1023 39 0
1023 54 0
955 0 0
930 0 0
776 0 0
914 0 0
925 0 0
1023 8 0
1004 0 0
1023 169 0
1023 314 0
1023 408 0
1023 516 0
1023 760 0
1023 971 0
985 1023 37
568 1023 454
418 1023 604
426 1023 596
477 1023 545
0 168 1023
0 0 511
0 0 511
0 0 511
0 0 511
0 0 511
0 0 511
0 0 511
0 0 511
0 0 511
0 0 511
0 0 511
0 0 511
0 0 511
0 0 511
0 0 511
0 0 511
0 0 511
0 0 511
0 0 511
0 0 511
0 0 511
0 0 511
0 0 511
0 0 511
0 0 511
0 0 511
0 0 511
0 0 511
0 0 511
0 0 511
0 0 511
0 0 511
0 0 511
0 0 511
0 0 511
0 0 511
0 0 511
0 0 511
0 0 511
0 0 511
0 0 882
0 964 1023
0 752 1023
0 678 1023
0 795 1023
6 1023 1016
41 1023 981
157 1023 865
386 1023 636
437 1023 585
511 1023 511
587 1023 435
751 1023 271
769 1023 253
828 1023 194
825 1023 197
901 1023 121
836 1023 186
848 1023 174
806 1023 216
798 1023 224
647 1023 375
573 1023 449
514 1023 508
462 1023 560
248 1023 774
128 1023 894
100 1023 922
0 885 1023
0 775 1023
0 825 1023
1 1023 1021
0 0 941
0 0 511
0 0 511
0 0 511
0 0 511
0 0 511
0 0 511
0 0 511
0 0 511
0 0 511
0 0 511
0 0 511
0 0 511
0 0 511
0 0 511
0 0 511
0 0 511
0 0 511
0 0 511
0 0 511
0 0 511
0 0 511
0 0 511
0 0 511
0 0 511
0 0 511
0 0 511
0 0 511
0 0 511
0 0 511
0 0 511
0 0 511
0 0 511
0 0 511
0 0 511
0 0 511
0 0 511
0 0 511
0 0 511
0 0 511
0 0 511
0 0 918
3 1023 1019
0 718 1023
0 562 1023
0 598 1023
0 821 1023
0 707 1023
0 693 1023
0 804 1023
0 790 1023
0 780 1023
0 790 1023
0 892 1023
0 805 1023
0 839 1023
0 811 1023
0 892 1023
0 801 1023
0 814 1023
0 778 1023
0 859 1023
0 749 1023
0 727 1023
0 741 1023
0 745 1023
0 628 1023
0 646 1023
0 775 1023
0 539 1023
0 526 1023
0 708 1023
7 1023 1015
0 0 901
0 0 511
0 0 511
0 0 511
0 0 511
0 0 511
0 0 511
0 0 511
0 0 511
0 0 511
0 0 511
0 0 511
0 0 511
0 0 511
0 0 511
0 0 511
0 0 511
0 0 511
0 0 511
0 0 511
0 0 511
0 0 511
0 0 511
0 0 511
0 0 511
0 0 511
0 0 511
0 0 511
0 0 511
0 0 511
0 0 511
0 0 511
0 0 511
0 0 511
0 0 511
0 0 511
0 0 511
0 0 511
0 0 511
0 0 511
0 0 511
0 66 1023
299 1023 723
165 1023 857
148 1023 874
303 1023 719
756 1023 266
824 1023 198
1022 1023 0
1023 800 0
1023 625 0
1023 528 0
1023 430 0
1023 231 0
1023 231 0
1023 86 0
1023 126 0
1023 5 0
1023 138 0
1023 106 0
1023 263 0
1023 274 0
1023 485 0
1023 590 0
1023 696 0
1023 881 0
937 1023 85
738 1023 284
670 1023 352
204 1023 818
67 1023 955
116 1023 906
282 1023 740
0 38 1023
0 0 511
0 0 511
0 0 511
0 0 511
0 0 511
0 0 511
0 0 511
0 0 511
0 0 511
0 0 511
0 0 511
0 0 511
0 0 511
0 0 511
0 0 511
0 0 511
0 0 511
0 0 511
0 0 511
0 0 511
0 0 511
0 0 511
0 0 511
0 0 511
0 0 511
0 0 511
0 0 511
0 0 511
0 0 511
0 0 511
0 0 511
0 0 511
0 0 511
0 0 511
0 0 511
0 0 511
0 0 511
0 0 511
0 0 511
0 0 511
0 155 1023
498 1023 524
489 1023 533
410 1023 612
397 1023 625
874 1023 148
1006 1023 16
1023 898 0
1023 758 0
1023 604 0
1023 544 0
1023 498 0
1023 299 0
1023 335 0
1023 201 0
1023 297 0
1023 115 0
1023 300 0
1023 204 0
1023 341 0
1023 305 0
1023 511 0
1023 558 0
1023 624 0
1023 783 0
1023 920 0
987 1023 35
857 1023 165
368 1023 654
395 1023 627
490 1023 532
517 1023 505
0 165 1023
0 0 511
0 0 511
0 0 511
0 0 511
0 0 511
0 0 511
0 0 511
0 0 511
0 0 511
0 0 511
0 0 511
0 0 511
0 0 511
0 0 511
0 0 511
0 0 511
0 0 511
0 0 511
0 0 511
0 0 511
0 0 511
0 0 511
0 0 511
0 0 511
0 0 511
0 0 511
0 0 511
0 0 511
0 0 511
0 0 511
0 0 511
0 0 511
0 0 511
0 0 511
0 0 511
0 0 511
0 0 511
0 0 511
0 0 511
0 0 511
0 161 1023
443 1023 579
495 1023 527
459 1023 563
517 1023 505
922 1023 100
1023 970 0
1023 790 0
1023 569 0
1023 383 0
1023 325 0
1023 242 0
1023 15 0
1023 7 0
913 0 0
935 0 0
767 0 0
922 0 0
886 0 0
993 0 0
992 0 0
1023 184 0
1023 259 0
1023 309 0
1023 494 0
1023 702 0
1023 886 0
1011 1023 11
596 1023 426
548 1023 474
567 1023 455
513 1023 509
0 218 1023
0 0 511
0 0 511
0 0 511
0 0 511
0 0 511
0 0 511
0 0 511
0 0 511
0 0 511
0 0 511
0 0 511
0 0 511
0 0 511
0 0 511
0 0 511
0 0 511
0 0 511
0 0 511
0 0 511
0 0 511
0 0 511
0 0 511
0 0 511
0 0 511
0 0 511
0 0 511
0 0 511
0 0 511
0 0 511
0 0 511
0 0 511
0 0 511
0 0 511
0 0 511
0 0 511
0 0 511
0 0 511
0 0 511
0 0 511
0 0 511
0 0 954
6 1023 1016
0 961 1023
13 1023 1009
215 1023 807
553 1023 469
677 1023 345
902 1023 120
1023 851 0
1023 718 0
1023 647 0
1023 519 0
1023 303 0
1023 255 0
1023 165 0
1023 138 0
1023 57 0
1023 125 0
1023 141 0
1023 215 0
1023 254 0
1023 457 0
1023 579 0
1023 631 0
1023 761 0
1006 1023 16
781 1023 241
665 1023 357
321 1023 701
131 1023 891
37 1023 985
93 1023 929
0 7 1023
0 0 511
0 0 511
0 0 511
0 0 511
0 0 511
0 0 511
0 0 511
0 0 511
0 0 511
0 0 511
0 0 511
0 0 511
0 0 511
0 0 511
0 0 511
0 0 511
0 0 511
0 0 511
0 0 511
0 0 511
0 0 511
0 0 511
0 0 511
0 0 511
0 0 511
0 0 511
0 0 511
0 0 511
0 0 511
0 0 511
0 0 511
0 0 511
0 0 511
0 0 511
0 0 511
0 0 511
0 0 511
0 0 511
0 0 511
0 0 511
0 0 847
0 832 1023
0 547 1023
0 400 1023
0 403 1023
0 567 1023
0 485 1023
0 458 1023
0 565 1023
0 545 1023
0 581 1023
0 537 1023
0 650 1023
0 566 1023
0 647 1023
0 599 1023
0 679 1023
0 608 1023
0 656 1023
0 590 1023
0 670 1023
0 571 1023
0 601 1023
0 593 1023
0 607 1023
0 510 1023
0 526 1023
0 619 1023
0 449 1023
0 453 1023
0 590 1023
0 873 1023
0 0 867
0 0 511
0 0 511
0 0 511
0 0 511
0 0 511
0 0 511
0 0 511
0 0 511
0 0 511
0 0 511
0 0 511
0 0 511
0 0 511
0 0 511
0 0 511
0 0 511
0 0 511
0 0 511
0 0 511
0 0 511
0 0 511
0 0 511
0 0 511
0 0 511
0 0 511
0 0 511
0 0 511
0 0 511
0 0 511
0 0 511
0 0 511
0 0 511
0 0 511
0 0 511
0 0 511
0 0 511
0 0 511
0 0 511
0 0 511
0 0 511
0 0 874
0 840 1023
0 645 1023
0 652 1023
0 786 1023
61 1023 961
87 1023 935
263 1023 759
458 1023 564
570 1023 452
626 1023 396
722 1023 300
884 1023 138
897 1023 125
938 1023 84
933 1023 89
1002 1023 20
924 1023 98
913 1023 109
858 1023 164
836 1023 186
667 1023 355
560 1023 462
495 1023 527
371 1023 651
169 1023 853
0 1015 1023
0 995 1023
0 678 1023
0 562 1023
0 593 1023
0 823 1023
0 0 828
0 0 511
0 0 511
0 0 511
0 0 511
0 0 511
0 0 511
0 0 511
0 0 511
0 0 511
0 0 511
0 0 511
0 0 511
0 0 511
0 0 511
0 0 511
0 0 511
0 0 511
0 0 511
0 0 511
0 0 511
0 0 511
0 0 511
0 0 511
0 0 511
0 0 511
0 0 511
0 0 511
0 0 511
0 0 511
0 0 511
0 0 511
0 0 511
0 0 511
0 0 511
0 0 511
0 0 511
0 0 511
0 0 511
0 0 511
0 0 511
0 80 1023
204 1023 818
269 1023 753
326 1023 696
471 1023 551
913 1023 109
1023 988 0
1023 721 0
1023 498 0
1023 324 0
1023 212 0
1023 61 0
866 0 0
856 0 0
715 0 0
787 0 0
664 0 0
795 0 0
727 0 0
876 0 0
895 0 0
1023 95 0
1023 249 0
1023 368 0
1023 547 0
1023 766 0
1012 1023 10
869 1023 153
419 1023 603
294 1023 728
259 1023 763
216 1023 806
0 86 1023
0 0 511
0 0 511
0 0 511
0 0 511
0 0 511
0 0 511
0 0 511
0 0 511
0 0 511
0 0 511
0 0 511
0 0 511
0 0 511
0 0 511
0 0 511
0 0 511
0 0 511
0 0 511
0 0 511
0 0 511
0 0 511
0 0 511
0 0 511
0 0 511
0 0 511
0 0 511
0 0 511
0 0 511
0 0 511
0 0 511
0 0 511
0 0 511
0 0 511
0 0 511
0 0 511
0 0 511
0 0 511
0 0 511
0 0 511
0 0 511
0 55 1023
98 1023 924
182 1023 840
206 1023 816
247 1023 775
620 1023 402
754 1023 268
891 1023 131
1017 1023 5
1023 873 0
1023 783 0
1023 724 0
1023 567 0
1023 537 0
1023 439 0
1023 545 0
1023 418 0
1023 540 0
1023 426 0
1023 519 0
1023 543 0
1023 697 0
1023 748 0
1023 833 0
1023 990 0
939 1023 83
799 1023 223
674 1023 348
292 1023 730
269 1023 753
234 1023 788
158 1023 864
0 108 1023
0 0 511
0 0 511
0 0 511
0 0 511
0 0 511
0 0 511
0 0 511
0 0 511
0 0 511
0 0 511
0 0 511
0 0 511
0 0 511
0 0 511
0 0 511
0 0 511
0 0 511
0 0 511
0 0 511
0 0 511
0 0 511
0 0 511
0 0 511
0 0 511
0 0 511
0 0 511
0 0 511
0 0 511
0 0 511
0 0 511
0 0 511
0 0 511
0 0 511
0 0 511
0 0 511
0 0 511
0 0 511
0 0 511
0 0 511
0 0 511
0 0 972
0 855 1023
0 939 1023
99 1023 923
334 1023 688
728 1023 294
909 1023 113
1023 917 0
1023 640 0
1023 403 0
1023 249 0
1023 153 0
960 0 0
865 0 0
791 0 0
781 0 0
665 0 0
772 0 0
772 0 0
833 0 0
919 0 0
1023 102 0
1023 190 0
1023 329 0
1023 564 0
1023 830 0
998 1023 24
831 1023 191
433 1023 589
211 1023 811
16 1023 1006
0 951 1023
0 24 1023
0 0 511
0 0 511
0 0 511
0 0 511
0 0 511
0 0 511
0 0 511
0 0 511
0 0 511
0 0 511
0 0 511
0 0 511
0 0 511
0 0 511
0 0 511
0 0 511
0 0 511
0 0 511
0 0 511
0 0 511
0 0 511
0 0 511
0 0 511
0 0 511
0 0 511
0 0 511
0 0 511
0 0 511
0 0 511
0 0 511
0 0 511
0 0 511
0 0 511
0 0 511
0 0 511
0 0 511
0 0 511
0 0 511
0 0 511
0 0 511
0 0 701
0 422 1023
0 301 1023
0 485 1023
0 672 1023
0 893 1023
0 981 1023
129 1023 893
291 1023 731
391 1023 631
493 1023 529
596 1023 426
714 1023 308
744 1023 278
786 1023 236
830 1023 192
895 1023 127
839 1023 183
799 1023 223
768 1023 254
740 1023 282
632 1023 390
529 1023 493
446 1023 576
348 1023 674
192 1023 830
27 1023 995
0 976 1023
0 755 1023
0 575 1023
0 387 1023
0 495 1023
0 0 769
0 0 511
0 0 511
0 0 511
0 0 511
0 0 511
0 0 511
0 0 511
0 0 511
0 0 511
0 0 511
0 0 511
0 0 511
0 0 511
0 0 511
0 0 511
0 0 511
0 0 511
0 0 511
0 0 511
0 0 511
0 0 511
0 0 511
0 0 511
0 0 511
0 0 511
0 0 511
0 0 511
0 0 511
0 0 511
0 0 511
0 0 511
0 0 511
0 0 511
0 0 511
0 0 511
0 0 511
0 0 511
0 0 511
0 0 511
0 0 511
0 0 704
0 184 1023
0 38 1023
0 97 1023
0 122 1023
0 286 1023
0 314 1023
0 424 1023
0 561 1023
0 622 1023
0 668 1023
0 706 1023
0 854 1023
0 852 1023
0 838 1023
0 839 1023
0 909 1023
0 844 1023
0 821 1023
0 820 1023
0 817 1023
0 671 1023
0 609 1023
0 565 1023
0 492 1023
0 356 1023
0 236 1023
0 221 1023
0 48 1023
0 33 1023
0 0 1023
0 184 1023
0 0 676
0 0 511
0 0 511
0 0 511
0 0 511
0 0 511
0 0 511
0 0 511
0 0 511
0 0 511
0 0 511
0 0 511
0 0 511
0 0 511
0 0 511
0 0 511
0 0 511
0 0 511
0 0 511
0 0 511
0 0 511
0 0 511
0 0 511
0 0 511
0 0 511
0 0 511
0 0 511
0 0 511
0 0 511
0 0 511
0 0 511
0 0 511
0 0 511
0 0 511
0 0 511
0 0 511
0 0 511
0 0 511
0 0 511
0 0 511
0 0 511
0 0 886
0 554 1023
0 686 1023
0 921 1023
70 1023 952
332 1023 690
465 1023 557
749 1023 273
974 1023 48
1023 892 0
1023 821 0
1023 698 0
1023 515 0
1023 444 0
1023 423 0
1023 424 0
1023 350 0
1023 432 0
1023 443 0
1023 471 0
1023 545 0
1023 740 0
1023 872 0
1023 945 0
918 1023 104
694 1023 328
403 1023 619
277 1023 745
7 1023 1015
0 872 1023
0 657 1023
0 548 1023
0 0 869
0 0 511
0 0 511
0 0 511
0 0 511
0 0 511
0 0 511
0 0 511
0 0 511
0 0 511
0 0 511
0 0 511
0 0 511
0 0 511
0 0 511
0 0 511
0 0 511
0 0 511
0 0 511
0 0 511
0 0 511
0 0 511
0 0 511
0 0 511
0 0 511
0 0 511
0 0 511
0 0 511
0 0 511
0 0 511
0 0 511
0 0 511
0 0 511
0 0 511
0 0 511
0 0 511
0 0 511
0 0 511
0 0 511
0 0 511
0 0 511
0 0 947
0 540 1023
0 738 1023
0 883 1023
21 1023 1001
346 1023 676
559 1023 463
807 1023 215
993 1023 29
1023 813 0
1023 660 0
1023 528 0
1023 398 0
1023 314 0
1023 178 0
1023 218 0
1023 170 0
1023 218 0
1023 174 0
1023 304 0
1023 386 0
1023 511 0
1023 646 0
1023 798 0
1007 1023 15
836 1023 186
586 1023 436
376 1023 646
31 1023 991
0 914 1023
0 774 1023
0 596 1023
0 0 984
0 0 511
0 0 511
0 0 511
0 0 511
0 0 511
0 0 511
0 0 511
0 0 511
0 0 511
0 0 511
0 0 511
0 0 511
0 0 511
0 0 511
0 0 511
0 0 511
0 0 511
0 0 511
0 0 511
0 0 511
0 0 511
0 0 511
0 0 511
0 0 511
0 0 511
0 0 511
0 0 511
0 0 511
0 0 511
0 0 511
0 0 511
0 0 511
0 0 511
0 0 511
0 0 511
0 0 511
0 0 511
0 0 511
0 0 511
0 0 511
0 0 959
0 604 1023
0 921 1023
218 1023 804
467 1023 555
844 1023 178
1023 932 0
1023 712 0
1023 471 0
1023 187 0
1010 0 0
878 0 0
748 0 0
628 0 0
539 0 0
523 0 0
515 0 0
521 0 0
527 0 0
608 0 0
722 0 0
848 0 0
975 0 0
1023 144 0
1023 430 0
1023 660 0
1023 881 0
902 1023 120
515 1023 507
277 1023 745
0 986 1023
0 676 1023
0 0 1009
0 0 511
0 0 511
0 0 511
0 0 511
0 0 511
0 0 511
0 0 511
0 0 511
0 0 511
0 0 511
0 0 511
0 0 511
0 0 511
0 0 511
0 0 511
0 0 511
0 0 511
0 0 511
0 0 511
0 0 511
0 0 511
0 0 511
0 0 511
0 0 511
0 0 511
0 0 511
0 0 511
0 0 511
0 0 511
0 0 511
0 0 511
0 0 511
0 0 511
0 0 511
0 0 511
0 0 511
0 0 511
0 0 511
0 0 511
0 0 511
0 0 872
0 253 1023
0 555 1023
0 938 1023
200 1023 822
523 1023 499
781 1023 241
1023 977 0
1023 730 0
1023 531 0
1023 377 0
1023 198 0
1023 26 0
969 0 0
963 0 0
878 0 0
832 0 0
878 0 0
966 0 0
965 0 0
1023 25 0
1023 188 0
1023 374 0
1023 517 0
1023 724 0
1023 956 0
797 1023 225
557 1023 465
227 1023 795
0 971 1023
0 601 1023
0 319 1023
0 0 910
0 0 511
0 0 511
0 0 511
0 0 511
0 0 511
0 0 511
0 0 511
0 0 511
0 0 511
0 0 511
0 0 511
0 0 511
0 0 511
0 0 511
0 0 511
0 0 511
0 0 511
0 0 511
0 0 511
0 0 511
0 0 511
0 0 511
0 0 511
0 0 511
0 0 511
0 0 511
0 0 511
0 0 511
0 0 511
0 0 511
0 0 511
0 0 511
0 0 511
0 0 511
0 0 511
0 0 511
0 0 511
0 0 511
0 0 511
0 0 511
0 0 743
0 0 739
0 0 857
0 0 917
0 0 911
0 0 891
0 0 949
0 0 1005
0 0 1001
0 0 1020
0 29 1023
0 47 1023
0 21 1023
0 76 1023
0 94 1023
0 66 1023
0 22 1023
0 70 1023
0 88 1023
0 60 1023
0 0 1017
0 20 1023
0 0 1016
0 0 984
0 0 956
0 0 960
0 0 913
0 0 865
0 0 878
0 0 872
0 0 820
0 0 706
0 0 733
0 0 511
0 0 511
0 0 511
0 0 511
0 0 511
0 0 511
0 0 511
0 0 511
0 0 511
0 0 511
0 0 511
0 0 511
0 0 511
0 0 511
0 0 511
0 0 511
0 0 511
0 0 511
0 0 511
0 0 511
0 0 511
0 0 511
0 0 511
0 0 511
0 0 511
0 0 511
0 0 511
0 0 511
0 0 511
0 0 511
0 0 511
0 0 511
0 0 511
0 0 511
0 0 511
0 0 511
0 0 511
0 0 511
0 0 511
0 0 511
0 0 511
0 0 511
0 0 511
0 0 511
0 0 511
0 0 511
0 0 511
0 0 511
0 0 511
0 0 511
0 0 511
0 0 511
0 0 511
0 0 511
0 0 511
0 0 511
0 0 511
0 0 511
0 0 511
0 0 511
0 0 511
0 0 511
0 0 511
0 0 511
0 0 511
0 0 511
0 0 511
0 0 511
0 0 511
0 0 511
0 0 511
0 0 511
0 0 511
0 0 511
0 0 511
0 0 511
0 0 511
0 0 511
0 0 511
0 0 511
0 0 511
0 0 511
0 0 511
0 0 511
0 0 511
0 0 511
0 0 511
0 0 511
0 0 511
0 0 511
0 0 511
0 0 511
0 0 511
0 0 511
0 0 511
0 0 511
0 0 511
0 0 511
0 0 511
0 0 511
0 0 511
0 0 511
0 0 511
0 0 511
0 0 511
0 0 511
0 0 511
0 0 511
0 0 511
0 0 511
0 0 511
0 0 511
0 0 511
0 0 511
0 0 511
0 0 511
0 0 511
0 0 511
0 0 511
0 0 511
0 0 511
0 0 511
0 0 511
0 0 511
0 0 511
0 0 511
0 0 511
0 0 511
0 0 511
0 0 511
0 0 511
0 0 511
0 0 511
0 0 511
0 0 511
0 0 511
0 0 511
0 0 511
0 0 511
0 0 511
0 0 511
0 0 511
0 0 511
0 0 511
0 0 511
0 0 511
0 0 511
0 0 511
0 0 511
0 0 511
0 0 511
0 0 511
0 0 511
0 0 511
0 0 511
0 0 511
0 0 511
0 0 511
0 0 511
0 0 511
0 0 511
0 0 511
0 0 511
0 0 511
0 0 511
0 0 511
0 0 511
0 0 511
0 0 511
0 0 511
0 0 511
0 0 511
0 0 511
0 0 511
0 0 511
0 0 511
0 0 511
0 0 511
0 0 511
0 0 511
0 0 511
0 0 511
0 0 511
0 0 511
0 0 511
0 0 511
0 0 511
0 0 511
0 0 511
0 0 511
0 0 511
0 0 511
0 0 511
0 0 511
0 0 511
0 0 511
0 0 511
0 0 511
0 0 511
0 0 511
0 0 511
0 0 511
0 0 511
0 0 511
0 0 511
0 0 511
0 0 511
0 0 511
0 0 511
0 0 511
0 0 511
0 0 511
0 0 511
0 0 511
0 0 511
0 0 511
0 0 511
0 0 511
0 0 511
0 0 511
0 0 511
0 0 511
